<svg xmlns="http://www.w3.org/2000/svg" viewBox="0 0 512 512"><text/><path d="M46.63,230v10.6a27.93,27.93,0,0,0,1.87,9q1.88,5.29,5.61,18.38l4.36-1.87a161.7,161.7,0,0,0,4.68,19.63q2.17,6.56.93,15.59t-3.74,12.15a37.65,37.65,0,0,0-5,9.35l-15.59,5-11.21-8.1a26.57,26.57,0,0,1-3.12-5.61c-.42-1.25-2.18-3.32-5.3-6.23S13.8,299,10.48,289.81,6.43,273.5,8.3,268.3s3.74-8.82,5.61-10.9,4.68-5.61,8.41-10.6A77.61,77.61,0,0,0,46.63,230Zm336.55-39.88a143.56,143.56,0,0,0,15.89.31,91.13,91.13,0,0,1,15.58.93q9.66,1.26,14.65,5.61a142.07,142.07,0,0,0,14.33,10.6,124.08,124.08,0,0,0,11.22,13.71q4.35,4.37,10.6,19.32t10,37.39q3.74,22.44,2.49,40.51t-3.74,25.87q-2.49,7.8-6.85,22.75l13.08,11.22,19.32,36.14-1.87,5,6.86,7.48a3.6,3.6,0,0,1-2.49,1.24c-.84,0-2.81-.2-5.92-.62a84.78,84.78,0,0,0-10.91-.62,55.59,55.59,0,0,1-15-2.5q-8.73-2.48-26.17-6.85-8.11,13.71-13.09,19a108.09,108.09,0,0,0-9,10.9,42.5,42.5,0,0,1-7.17,8.11c-2.08,1.66-3.11,3.53-3.11,5.61q-15,15-23.06,21.81A146.09,146.09,0,0,1,367,497.65a139.34,139.34,0,0,1-26.48,11.85q-12.78,4-18.7,1.55a35,35,0,0,0-11.84-2.8A20.88,20.88,0,0,1,299,504.51q-5-3.43-15.58-9.66-4.36-4.37-6.54-6.85t-5-9.35q-2.81-6.86-4.05-18.39t-2.49-18.39q-1.26-6.84-3.74-19.94a9,9,0,0,1-3.43-.62q-1.56-.62-12.78,5.92t-19.94,8.1a52.57,52.57,0,0,1-17.14.31q-8.42-1.25-13.4-1.87-7.47-13.69-11.84-18.69c-2.91-3.32-4.05-6.24-3.43-8.73s1.35-5.81,2.18-10l1.87,3.11a100.19,100.19,0,0,1,10,5.61q3.75,2.5,10.29,1.87a22.46,22.46,0,0,0,12.46-5.6q5.92-5,17.14-14.34,16.83-19.93,24.62-27.42t9.35-10.29a61.49,61.49,0,0,0,3.43-7.79l-44.88-18.07a1463.43,1463.43,0,0,1-114,128.39Q92.12,469.3,83.4,476.46a80.88,80.88,0,0,1-15.89,10.6q-7.17,3.42-10.91,3.43H46l-2.5-6.86-8.72-7.48q-.63-3.73-2.49-5.29a18,18,0,0,1-3.74-4.68,40.32,40.32,0,0,0-4-5.61,58.07,58.07,0,0,1-5.3-7.48,24.77,24.77,0,0,0,5.61-16.2,62.3,62.3,0,0,1,4.67-4.36,6.28,6.28,0,0,1,4.05-1.25H40.4Q46,425.06,50.06,421t24.3-28.67a570.63,570.63,0,0,0,41.45-58.28Q137,300.4,138.56,296t3.43-9.35a66.2,66.2,0,0,0-10.29-2.18,15.5,15.5,0,0,1-7.16-2.81q-3.75-2.47-12.47-7.48A86.28,86.28,0,0,0,99.29,257.4q-7.8-8.1-7.79-10.6,11.22,3.73,16.21,5.92t14-1.87q9-4,23.06-17.45t24-18.69a290.26,290.26,0,0,0,25.55-15.9l3.11-7.48c7.89,0,13.71-.09,17.45-.31a22,22,0,0,1,10,1.56l14.33,5.61a53.09,53.09,0,0,0,.31,5.92q.31,2.8-4.36,13.4a82.83,82.83,0,0,1-10.91,18.39,81.54,81.54,0,0,0-10,15.58q-3.74,7.8-16.51,20.87t-25.87,29.3q-13.08,16.22-45.49,69.18l1.24,1.24q81-86.61,112.5-110t53.28-37.39q21.81-14,37.09-21.19t24.3-8.11Q363.85,194.45,383.18,190.09ZM175,135.87a15.1,15.1,0,0,0,5,1.55,36.48,36.48,0,0,1,6.86,1.87,74.68,74.68,0,0,0,10.59,2.81q6.23,1.26,16.21,7.48l2.49,5L210.54,162a17.42,17.42,0,0,1-3.43-.31q-1.56-.3-27.73,19.32t-43.32,27.42q-17.15,7.8-28.35,8.11a98.84,98.84,0,0,1-18.7-.94A42.84,42.84,0,0,1,75.3,211q-6.24-3.42-18.7-10.91h3.74q1.88,0,10.91-2.49t26.8-13.72q17.76-11.21,38.33-22.43T160.06,149a24.41,24.41,0,0,0,6.23-3.74ZM137.62,6.23,142,8.1l.62,2.5,16.83,16.2a39.58,39.58,0,0,0,.93,9.35c.63,2.49-1.46,6-6.23,10.59a145.85,145.85,0,0,0-12.47,13.4q-5.29,6.54-16.51,21.5h7.48q3.11,0,23.06-8.41t25.24-13.4c3.52-3.32,5.61-4.88,6.23-4.67a1.41,1.41,0,0,0,1.56-.32L191.22,53q7.49-1.24,18.08-2.5T222.07,52a13,13,0,0,0,5,4.05c1.87.84,4.46,2.09,7.79,3.74l3.11,8.1q-5,3.75-9.34,7.17T206.18,85.7a298.22,298.22,0,0,0-30.85,14q-12.78,6.87-17.76,11.53a37.06,37.06,0,0,1-12.47,7.48,66,66,0,0,1-15,3.74q-7.47.93-10.28-.94c-1.87-1.25-4.67-2.9-8.41-5l-3.12-6.86-7.48-6.23Q96.49,95.36,94,90.68t-4.68-15Q87.13,65.45,91.5,57.65t5-11.53a9.1,9.1,0,0,1,3.43-5.92c1.87-1.45,2.9-2.7,3.11-3.74A9.82,9.82,0,0,1,104.59,33l2.49-1.24L132.64,0Zm178.25,230.6q-11.22,8.73-17.14,12.78a145.09,145.09,0,0,0-13.09,10.28q-7.17,6.24-24,21.19L236.1,309.75a195.53,195.53,0,0,0,41.75,3.11,392.24,392.24,0,0,1,38.64-75.41Zm1.25,126.52a212,212,0,0,1-24.31,29.29l-8.1,5.61a139.1,139.1,0,0,0,18.07,45.49l10.6,10A98.08,98.08,0,0,0,324,452.16q4.35-.93,16.52-7.79a193.51,193.51,0,0,0,19.32-12.15,177.38,177.38,0,0,0,18.38-16.52l15-19.32Q355.76,378.94,317.74,364Zm-11.22-91a37.43,37.43,0,0,0-4,4.68,51.71,51.71,0,0,0-4.37,9q-2.81,6.85-10.28,24.93l3.12,1.24q6.84-17.44,10.59-23.06t3.74-8.72A34.74,34.74,0,0,1,305.9,272.35Zm79.15-63.57c-6.23.84-11,1.36-14.34,1.56a32.65,32.65,0,0,0-11.53,3.43q-6.54,3.12-20.87,9.35a31.44,31.44,0,0,0,5-.31,17,17,0,0,1,5.92.62q4.05.93,13.4,2.18,5,7.48,8.1,10c2.08,1.67,2.59,4.68,1.56,9a67.7,67.7,0,0,1-5.92,15Q362,268,362,271.42a9.53,9.53,0,0,1-1.87,5.92q-1.87,2.51-4.68,10.28t-10.9,30.85q37.4,13.72,75.41,26.18a64.83,64.83,0,0,1,4.67-8.1q2.17-3.12,5-15.58a216.06,216.06,0,0,0,4.05-24,124.31,124.31,0,0,0-.31-26.17,164.61,164.61,0,0,0-5.3-27.74q-3.74-13.08-7.48-17.45t-10-12.46A60.67,60.67,0,0,0,385.05,208.78Z"/></svg>