<svg id="图层_1" data-name="图层 1" xmlns="http://www.w3.org/2000/svg" viewBox="0 0 32 32"><title>画板 3</title><path d="M2.91,14.37V15A1.71,1.71,0,0,0,3,15.6c.08.22.2.6.35,1.15l.27-.12A11.09,11.09,0,0,0,4,17.86a2.17,2.17,0,0,1,.06,1,1.81,1.81,0,0,1-.24.76,2.42,2.42,0,0,0-.31.59l-1,.31L1.78,20a1.83,1.83,0,0,1-.19-.35,1.42,1.42,0,0,0-.33-.39,2.9,2.9,0,0,1-.6-1.13,2,2,0,0,1-.14-1.34,2.08,2.08,0,0,1,.35-.68c.12-.13.29-.35.53-.66A4.88,4.88,0,0,0,2.91,14.37Zm21-2.49a8.77,8.77,0,0,0,1,0,6.32,6.32,0,0,1,1,.06,1.69,1.69,0,0,1,.91.35,9.74,9.74,0,0,0,.9.66,7.29,7.29,0,0,0,.7.86A4.15,4.15,0,0,1,29.09,15a10.38,10.38,0,0,1,.62,2.33,10.84,10.84,0,0,1,.16,2.53,7.73,7.73,0,0,1-.23,1.62c-.11.33-.25.8-.43,1.42l.81.7,1.21,2.26-.11.31.42.47a.22.22,0,0,1-.15.08l-.37,0a6.56,6.56,0,0,0-.68,0,3.63,3.63,0,0,1-.94-.15c-.36-.11-.91-.25-1.63-.43A7.35,7.35,0,0,1,27,27.29a6,6,0,0,0-.57.68,3,3,0,0,1-.44.5.45.45,0,0,0-.2.35c-.62.63-1.1,1.08-1.44,1.37a9.36,9.36,0,0,1-1.36.91,8.76,8.76,0,0,1-1.66.74,1.85,1.85,0,0,1-1.17.1,2.21,2.21,0,0,0-.74-.17,1.39,1.39,0,0,1-.68-.24c-.21-.14-.53-.34-1-.6-.19-.18-.32-.33-.41-.43a2.08,2.08,0,0,1-.31-.58,4.18,4.18,0,0,1-.26-1.15c0-.48-.1-.87-.15-1.15s-.13-.7-.24-1.25a.46.46,0,0,1-.21,0,2.28,2.28,0,0,0-.8.37,4.11,4.11,0,0,1-1.25.51,3.5,3.5,0,0,1-1.07,0l-.83-.12a7.3,7.3,0,0,0-.75-1.17.63.63,0,0,1-.21-.54c0-.16.08-.37.14-.63l.11.2c.26.13.47.25.63.35a1,1,0,0,0,.64.12,1.52,1.52,0,0,0,.78-.35l1.07-.9c.7-.83,1.21-1.4,1.54-1.71a3.85,3.85,0,0,0,.58-.65,3.23,3.23,0,0,0,.22-.48l-2.81-1.13a90.89,90.89,0,0,1-7.13,8c-.83.73-1.42,1.24-1.79,1.54a4.71,4.71,0,0,1-1,.66,1.9,1.9,0,0,1-.68.22H2.88l-.16-.43-.55-.47A.47.47,0,0,0,2,29.43a1.23,1.23,0,0,1-.24-.29,1.83,1.83,0,0,0-.25-.35,4.37,4.37,0,0,1-.33-.47,1.59,1.59,0,0,0,.35-1L1.84,27A.42.42,0,0,1,2.1,27h.42c.24-.26.44-.48.61-.65s.67-.76,1.52-1.79a36.49,36.49,0,0,0,2.59-3.64c.88-1.4,1.35-2.2,1.42-2.38s.14-.37.21-.58a3.61,3.61,0,0,0-.64-.14,1,1,0,0,1-.45-.17c-.15-.11-.41-.26-.78-.47a5.35,5.35,0,0,0-.79-1.05c-.33-.34-.49-.56-.49-.66a8.78,8.78,0,0,1,1,.37,1.13,1.13,0,0,0,.88-.12,5.77,5.77,0,0,0,1.44-1.09,7,7,0,0,1,1.5-1.17c.41-.22.95-.55,1.6-1l.19-.47,1.09,0a1.35,1.35,0,0,1,.62.1l.9.35c0,.13,0,.25,0,.37a2.6,2.6,0,0,1-.27.83A5.06,5.06,0,0,1,14,14.74a5.39,5.39,0,0,0-.63,1,5.53,5.53,0,0,1-1,1.3q-.79.82-1.62,1.83T7.9,23.18l.08.07a68.43,68.43,0,0,1,7-6.87q2-1.45,3.33-2.34a21.4,21.4,0,0,1,2.32-1.32,5,5,0,0,1,1.52-.51Q22.74,12.15,24,11.88Zm-13-3.39a.94.94,0,0,0,.31.1,1.79,1.79,0,0,1,.43.12,5.19,5.19,0,0,0,.66.17,3.2,3.2,0,0,1,1,.47l.16.31-.35.47-.22,0a12.93,12.93,0,0,0-1.73,1.21A15.53,15.53,0,0,1,8.5,13a5.06,5.06,0,0,1-1.77.51,6.66,6.66,0,0,1-1.17-.06,2.67,2.67,0,0,1-.85-.29c-.26-.15-.65-.37-1.17-.69h.23a4.11,4.11,0,0,0,.68-.15,7.34,7.34,0,0,0,1.68-.86c.74-.47,1.54-.93,2.39-1.4S9.87,9.36,10,9.31a1.59,1.59,0,0,0,.39-.23ZM8.6.39l.27.12,0,.15,1.05,1a2.4,2.4,0,0,0,.06.58c0,.15-.09.38-.39.66a9.72,9.72,0,0,0-.78.84c-.22.27-.56.72-1,1.34h.47a7.33,7.33,0,0,0,1.44-.52,6.17,6.17,0,0,0,1.58-.84c.22-.21.35-.31.39-.29a.12.12,0,0,0,.1,0L12,3.31l1.13-.15c.44-.06.71,0,.8.09a.85.85,0,0,0,.31.26l.49.23.19.51-.58.44a6.71,6.71,0,0,1-1.4.67A17.41,17.41,0,0,0,11,6.23,6.27,6.27,0,0,0,9.85,7a2.32,2.32,0,0,1-.78.47,3.49,3.49,0,0,1-.94.23,1.08,1.08,0,0,1-.64-.05c-.12-.08-.29-.19-.52-.32l-.2-.42L6.3,6.47c-.18-.34-.32-.61-.43-.8a4.07,4.07,0,0,1-.29-.94A1.59,1.59,0,0,1,5.72,3.6,2.66,2.66,0,0,0,6,2.88a.63.63,0,0,1,.21-.37c.12-.09.19-.17.2-.23a.47.47,0,0,1,.1-.22L6.69,2l1.6-2ZM19.74,14.8c-.47.37-.82.63-1.07.8a8.94,8.94,0,0,0-.82.64l-1.5,1.33-1.59,1.79a11.72,11.72,0,0,0,2.61.19,24.37,24.37,0,0,1,2.41-4.71Zm.08,7.91a13.67,13.67,0,0,1-1.52,1.83l-.51.35a8.85,8.85,0,0,0,1.13,2.84l.67.63c.26,0,.48-.06.66-.1a4.81,4.81,0,0,0,1-.49A11.05,11.05,0,0,0,22.49,27a10.7,10.7,0,0,0,1.15-1l.93-1.21c-1.56-.72-3.13-1.4-4.71-2ZM19.12,17a2,2,0,0,0-.25.29,3.29,3.29,0,0,0-.28.57c-.11.29-.33.8-.64,1.56l.19.08a9.2,9.2,0,0,1,.67-1.45,1.14,1.14,0,0,0,.23-.54A2.37,2.37,0,0,1,19.12,17Zm4.95-4-.9.1a1.91,1.91,0,0,0-.72.21c-.27.13-.71.33-1.31.58h.32a1.06,1.06,0,0,1,.37,0,8,8,0,0,0,.83.14,2.9,2.9,0,0,0,.51.62c.13.11.16.3.1.57a4.58,4.58,0,0,1-.37.93,2.1,2.1,0,0,0-.28.74.56.56,0,0,1-.11.37,2.59,2.59,0,0,0-.29.65q-.18.48-.69,1.92c1.56.58,3.13,1.12,4.72,1.64a3.69,3.69,0,0,1,.29-.51,3.55,3.55,0,0,0,.31-1,12.34,12.34,0,0,0,.25-1.5,7,7,0,0,0,0-1.64,9.46,9.46,0,0,0-.33-1.73,3.21,3.21,0,0,0-.46-1.09q-.24-.27-.63-.78A3.66,3.66,0,0,0,24.07,13.05Z"/></svg>