<svg xmlns="http://www.w3.org/2000/svg" viewBox="0 0 128 128"><path d="M11.66,57.49v2.65a6.75,6.75,0,0,0,.47,2.26c.31.89.77,2.42,1.4,4.6l1.09-.47a38.77,38.77,0,0,0,1.17,4.91A8.6,8.6,0,0,1,16,75.33a6.8,6.8,0,0,1-.93,3,9.14,9.14,0,0,0-1.25,2.34L9.94,82l-2.8-2a6.41,6.41,0,0,1-.78-1.4A5.41,5.41,0,0,0,5,77a12.27,12.27,0,0,1-2.42-4.52Q1.38,69,2.08,67.08a8.43,8.43,0,0,1,1.4-2.73c.46-.52,1.17-1.4,2.1-2.65A19.37,19.37,0,0,0,11.66,57.49Zm84.13-10a35.5,35.5,0,0,0,4,.08,23.51,23.51,0,0,1,3.89.23,6.77,6.77,0,0,1,3.66,1.41,35.65,35.65,0,0,0,3.59,2.64,29.91,29.91,0,0,0,2.8,3.43,16.79,16.79,0,0,1,2.65,4.83,42.88,42.88,0,0,1,2.49,9.35,43.85,43.85,0,0,1,.63,10.13,30.13,30.13,0,0,1-.94,6.46c-.41,1.3-1,3.2-1.71,5.69l3.27,2.81,4.83,9-.47,1.25,1.72,1.87a.9.9,0,0,1-.63.31c-.21,0-.7-.05-1.48-.15a19.81,19.81,0,0,0-2.72-.16,14.14,14.14,0,0,1-3.74-.62q-2.19-.63-6.55-1.72a28.87,28.87,0,0,1-3.27,4.75,29.7,29.7,0,0,0-2.26,2.73,10.4,10.4,0,0,1-1.79,2,1.77,1.77,0,0,0-.78,1.4q-3.73,3.74-5.76,5.45a36.59,36.59,0,0,1-5.46,3.66,34.15,34.15,0,0,1-6.62,3q-3.2,1-4.67.39a8.92,8.92,0,0,0-3-.7,5.2,5.2,0,0,1-2.73-.93q-1.24-.85-3.9-2.42c-.72-.73-1.27-1.3-1.63-1.71A8.87,8.87,0,0,1,68,119.66a17.73,17.73,0,0,1-1-4.59c-.21-1.93-.42-3.46-.62-4.6s-.52-2.81-.94-5a2.39,2.39,0,0,1-.86-.15c-.26-.11-1.32.39-3.19,1.48a15.67,15.67,0,0,1-5,2,13.11,13.11,0,0,1-4.28.08c-1.4-.21-2.52-.36-3.35-.47a29,29,0,0,0-3-4.67,2.55,2.55,0,0,1-.86-2.18c.16-.63.34-1.46.55-2.5l.47.78a23.49,23.49,0,0,1,2.49,1.41,3.89,3.89,0,0,0,2.57.46,5.64,5.64,0,0,0,3.12-1.4q1.47-1.25,4.28-3.58c2.81-3.33,4.85-5.61,6.15-6.86a14.92,14.92,0,0,0,2.34-2.57,14.41,14.41,0,0,0,.86-2L56.53,80.87A365.37,365.37,0,0,1,28,113q-5,4.37-7.17,6.16a20.56,20.56,0,0,1-4,2.64,7.2,7.2,0,0,1-2.73.86H11.5l-.62-1.71L8.7,119a2.14,2.14,0,0,0-.63-1.33,4.35,4.35,0,0,1-.93-1.16,10.15,10.15,0,0,0-1-1.41,13.56,13.56,0,0,1-1.33-1.87,6.16,6.16,0,0,0,1.4-4c.52-.52.91-.88,1.17-1.09a1.57,1.57,0,0,1,1-.31H10.1c.93-1,1.74-1.89,2.41-2.57s2.7-3.06,6.08-7.17A141.24,141.24,0,0,0,29,83.51q5.29-8.42,5.69-9.5c.26-.73.54-1.51.86-2.34a16.5,16.5,0,0,0-2.57-.54,4,4,0,0,1-1.8-.7c-.62-.42-1.66-1-3.11-1.87a21.6,21.6,0,0,0-3.2-4.21c-1.3-1.35-1.94-2.23-1.94-2.65,1.87.62,3.21,1.12,4.05,1.48s2,.21,3.5-.47a22.68,22.68,0,0,0,5.77-4.36,28.81,28.81,0,0,1,6-4.67,70.62,70.62,0,0,0,6.38-4l.78-1.87c2,0,3.43,0,4.37-.07a5.28,5.28,0,0,1,2.49.39l3.58,1.4A13.92,13.92,0,0,0,59.88,51a9.76,9.76,0,0,1-1.09,3.35A20.33,20.33,0,0,1,56.06,59a20.2,20.2,0,0,0-2.49,3.9,22.49,22.49,0,0,1-4.13,5.22Q46.25,71.36,43,75.41T31.6,92.71l.31.31Q52.16,71.36,60,65.52t13.32-9.35a82.94,82.94,0,0,1,9.27-5.3,20.31,20.31,0,0,1,6.08-2A68.85,68.85,0,0,0,95.79,47.52ZM43.75,34a4,4,0,0,0,1.25.39,9.1,9.1,0,0,1,1.71.46,18.17,18.17,0,0,0,2.65.7,13.47,13.47,0,0,1,4,1.87L54,38.64l-1.4,1.87a3.81,3.81,0,0,1-.86-.08q-.39-.07-6.93,4.83A63.35,63.35,0,0,1,34,52.12a19.3,19.3,0,0,1-7.09,2,24.21,24.21,0,0,1-4.68-.23,10.88,10.88,0,0,1-3.43-1.17q-1.55-.85-4.67-2.73h.94a15.89,15.89,0,0,0,2.72-.62A28.57,28.57,0,0,0,24.51,46q4.44-2.8,9.58-5.61c3.43-1.87,5.4-2.9,5.92-3.11a6.17,6.17,0,0,0,1.56-.94ZM34.41,1.56,35.5,2l.15.62L39.86,6.7A10.27,10.27,0,0,0,40.09,9c.16.62-.36,1.5-1.56,2.65A36,36,0,0,0,35.42,15c-.89,1.09-2.26,2.88-4.13,5.37h1.87q.78,0,5.76-2.1T45.23,15q1.34-1.25,1.56-1.17a.34.34,0,0,0,.39-.08l.63-.47c1.24-.2,2.75-.41,4.51-.62s2.83-.08,3.2.39a3.17,3.17,0,0,0,1.24,1c.47.21,1.12.52,2,.94l.78,2-2.34,1.8a28.26,28.26,0,0,1-5.61,2.64,76.81,76.81,0,0,0-7.71,3.51,22.34,22.34,0,0,0-4.44,2.88,9.28,9.28,0,0,1-3.11,1.87,16.67,16.67,0,0,1-3.74.94A4.09,4.09,0,0,1,30,30.38c-.47-.31-1.17-.72-2.11-1.24l-.78-1.72-1.87-1.56c-.72-1.34-1.3-2.41-1.71-3.19a14.93,14.93,0,0,1-1.17-3.74,6.31,6.31,0,0,1,.55-4.52,10.49,10.49,0,0,0,1.24-2.88A2.28,2.28,0,0,1,25,10.05a1.9,1.9,0,0,0,.78-.94,2.42,2.42,0,0,1,.39-.85L26.77,8,33.16,0ZM79,59.21c-1.87,1.45-3.3,2.52-4.29,3.19A37.89,37.89,0,0,0,71.41,65c-1.2,1-3.19,2.81-6,5.3L59,77.44a49.47,49.47,0,0,0,10.44.78,98.26,98.26,0,0,1,9.66-18.86Zm.31,31.63a53,53,0,0,1-6.08,7.32l-2,1.4a34.6,34.6,0,0,0,4.52,11.38l2.64,2.49A22.75,22.75,0,0,0,81,113a18.89,18.89,0,0,0,4.13-2,45.51,45.51,0,0,0,4.83-3,44.26,44.26,0,0,0,4.6-4.13l3.74-4.83Q88.95,94.74,79.43,91ZM76.47,68.09a9.82,9.82,0,0,0-1,1.17,12.87,12.87,0,0,0-1.09,2.26c-.47,1.14-1.32,3.22-2.57,6.23l.78.31a34.78,34.78,0,0,1,2.65-5.76,4.51,4.51,0,0,0,.93-2.19A8.64,8.64,0,0,1,76.47,68.09ZM96.26,52.2c-1.56.21-2.75.33-3.58.39a8,8,0,0,0-2.88.85c-1.09.52-2.84,1.3-5.22,2.34a7,7,0,0,0,1.24-.08,4.22,4.22,0,0,1,1.48.16c.68.15,1.79.34,3.35.54a11.82,11.82,0,0,0,2,2.5c.52.41.65,1.16.39,2.26a17.07,17.07,0,0,1-1.48,3.73,8,8,0,0,0-1.09,3A2.43,2.43,0,0,1,90,69.34a11.31,11.31,0,0,0-1.17,2.57q-.7,1.95-2.73,7.71Q95.49,83,105,86.16a14.94,14.94,0,0,1,1.17-2,13.73,13.73,0,0,0,1.24-3.9,53,53,0,0,0,1-6,32.11,32.11,0,0,0-.08-6.54A40.31,40.31,0,0,0,107,60.77a12.45,12.45,0,0,0-1.87-4.37c-.62-.72-1.45-1.76-2.49-3.11A15,15,0,0,0,96.26,52.2Z"/></svg>