<svg id="图层_1" data-name="图层 1" xmlns="http://www.w3.org/2000/svg" viewBox="0 0 16 16"><title>画板 4</title><path d="M1.46,7.19v.33a.83.83,0,0,0,.06.28l.17.57.14,0c0,.27.1.47.14.61a1,1,0,0,1,0,.49.82.82,0,0,1-.11.38.85.85,0,0,0-.16.29l-.49.15L.89,10A1,1,0,0,1,.8,9.82a.76.76,0,0,0-.17-.2,1.46,1.46,0,0,1-.3-.56,1,1,0,0,1-.07-.68A1.5,1.5,0,0,1,.43,8,3.44,3.44,0,0,0,.7,7.71,2.46,2.46,0,0,0,1.46,7.19ZM12,5.94a4.5,4.5,0,0,0,.5,0A2.26,2.26,0,0,1,13,6a.92.92,0,0,1,.46.17,3.25,3.25,0,0,0,.44.34,5.42,5.42,0,0,0,.35.42,2.31,2.31,0,0,1,.34.61,6.1,6.1,0,0,1,.31,1.17A5.6,5.6,0,0,1,14.93,10a3.62,3.62,0,0,1-.11.81c-.05.16-.13.4-.22.71l.41.35L15.62,13l-.06.16.21.23a.09.09,0,0,1-.08,0l-.18,0-.34,0a1.49,1.49,0,0,1-.47-.08l-.82-.21a3.5,3.5,0,0,1-.41.59c-.1.11-.19.23-.28.34a1.27,1.27,0,0,1-.22.26.21.21,0,0,0-.1.17c-.31.31-.55.54-.72.68a4.19,4.19,0,0,1-.68.46,4.24,4.24,0,0,1-.83.37.88.88,0,0,1-.58.05,1.33,1.33,0,0,0-.37-.09.58.58,0,0,1-.34-.11c-.11-.08-.27-.18-.49-.31l-.21-.21A1.45,1.45,0,0,1,8.5,15a2.39,2.39,0,0,1-.13-.58,4.57,4.57,0,0,0-.08-.57c0-.14-.06-.35-.11-.62l-.11,0s-.17,0-.4.18a1.79,1.79,0,0,1-.62.25,1.41,1.41,0,0,1-.54,0l-.42,0A3.48,3.48,0,0,0,5.72,13a.3.3,0,0,1-.1-.27c0-.08,0-.18.06-.31l.06.09.31.18a.53.53,0,0,0,.32.06.64.64,0,0,0,.39-.18l.54-.45c.35-.41.61-.7.77-.85a2.53,2.53,0,0,0,.29-.32,2.22,2.22,0,0,0,.11-.25l-1.4-.56a47.07,47.07,0,0,1-3.57,4l-.89.77a2.66,2.66,0,0,1-.5.33.92.92,0,0,1-.34.11H1.44l-.08-.22-.27-.23A.34.34,0,0,0,1,14.71a.58.58,0,0,1-.12-.14,1.4,1.4,0,0,0-.12-.18,2,2,0,0,1-.17-.23.76.76,0,0,0,.18-.51l.14-.13a.18.18,0,0,1,.13,0h.21l.3-.32c.09-.09.34-.39.76-.9a16.27,16.27,0,0,0,1.3-1.82,13.64,13.64,0,0,0,.71-1.19c0-.09.07-.19.11-.29l-.32-.07a.44.44,0,0,1-.23-.09L3.5,8.57A2.38,2.38,0,0,0,3.1,8c-.16-.16-.24-.28-.24-.33l.51.19a.59.59,0,0,0,.43-.06,3,3,0,0,0,.72-.55,4,4,0,0,1,.75-.58,8.36,8.36,0,0,0,.8-.5L6.17,6h.55A.63.63,0,0,1,7,6l.45.17v.19a1,1,0,0,1-.13.42A2.61,2.61,0,0,1,7,7.37a2.22,2.22,0,0,0-.31.49,2.82,2.82,0,0,1-.52.65,10.82,10.82,0,0,0-.81.92A24.27,24.27,0,0,0,4,11.59l0,0A35.11,35.11,0,0,1,7.5,8.19C8.16,7.7,8.72,7.31,9.17,7a10.25,10.25,0,0,1,1.16-.66,2.53,2.53,0,0,1,.76-.25A9,9,0,0,0,12,5.94ZM5.47,4.25a.42.42,0,0,0,.15,0l.22.06a1.93,1.93,0,0,0,.33.09,1.76,1.76,0,0,1,.51.23l.07.16-.17.23H6.47a7.39,7.39,0,0,0-.86.61,7.58,7.58,0,0,1-1.36.85,2.38,2.38,0,0,1-.88.26,4.8,4.8,0,0,1-.59,0,1.57,1.57,0,0,1-.43-.15l-.58-.34h.12a1.63,1.63,0,0,0,.34-.08,3.71,3.71,0,0,0,.83-.42c.37-.24.77-.47,1.2-.71L5,4.65a.66.66,0,0,0,.2-.11ZM4.3.19l.14.06,0,.08L5,.84a1.23,1.23,0,0,0,0,.29c0,.08,0,.19-.19.33a3.74,3.74,0,0,0-.39.42c-.11.14-.29.36-.52.67h.23a4,4,0,0,0,.73-.26,3.42,3.42,0,0,0,.78-.42.68.68,0,0,1,.2-.15s0,0,.05,0L6,1.66a5.35,5.35,0,0,1,.56-.08c.22,0,.35,0,.4,0a.45.45,0,0,0,.16.12l.24.12.1.25-.3.23a3.58,3.58,0,0,1-.7.33,8.08,8.08,0,0,0-1,.44,2.72,2.72,0,0,0-.56.36,1.22,1.22,0,0,1-.39.23,2,2,0,0,1-.46.12.48.48,0,0,1-.32,0l-.27-.16-.09-.21-.24-.2-.21-.4a2,2,0,0,1-.15-.46.83.83,0,0,1,.07-.57A1.59,1.59,0,0,0,3,1.44a.24.24,0,0,1,.1-.18.31.31,0,0,0,.1-.12.34.34,0,0,1,0-.11l.08,0,.79-1ZM9.87,7.4c-.23.18-.41.32-.53.4a3.32,3.32,0,0,0-.41.32l-.75.66-.8.9a6.12,6.12,0,0,0,1.3.1A12.24,12.24,0,0,1,9.89,7.42Zm0,3.95a6.31,6.31,0,0,1-.76.92l-.25.18a4.34,4.34,0,0,0,.56,1.42l.33.31.33,0a2.45,2.45,0,0,0,.52-.24c.25-.15.45-.27.6-.38a6.78,6.78,0,0,0,.58-.52l.47-.6c-.78-.37-1.57-.7-2.36-1ZM9.56,8.51a.87.87,0,0,0-.13.15,1.25,1.25,0,0,0-.13.28c-.06.14-.17.4-.32.78l.09,0A5.5,5.5,0,0,1,9.4,9a.56.56,0,0,0,.12-.28A1,1,0,0,1,9.56,8.51Zm2.47-2a3.2,3.2,0,0,1-.45.05,1.3,1.3,0,0,0-.36.11c-.13.07-.35.16-.65.29h.16a.69.69,0,0,1,.18,0l.42.07a1.68,1.68,0,0,0,.25.31c.07,0,.09.15.05.28a1.86,1.86,0,0,1-.18.47,1.09,1.09,0,0,0-.14.37.31.31,0,0,1-.06.19,1.5,1.5,0,0,0-.14.32l-.34,1c.78.29,1.56.56,2.35.82a2.34,2.34,0,0,1,.15-.25,2.06,2.06,0,0,0,.16-.49,7.27,7.27,0,0,0,.12-.75,3.79,3.79,0,0,0,0-.82,5.7,5.7,0,0,0-.16-.86,1.52,1.52,0,0,0-.24-.55l-.31-.39A2,2,0,0,0,12,6.52Z"/></svg>