<svg xmlns="http://www.w3.org/2000/svg" viewBox="0 0 256 256"><path d="M23.32,115v5.3a14,14,0,0,0,.93,4.51q.93,2.65,2.8,9.2l2.19-.94a79.69,79.69,0,0,0,2.33,9.82,17.22,17.22,0,0,1,.47,7.79c-.42,3-1,5-1.87,6.07a19.14,19.14,0,0,0-2.49,4.68l-7.79,2.49-5.61-4a13.54,13.54,0,0,1-1.56-2.8,10.6,10.6,0,0,0-2.65-3.12q-2.34-2.17-4.83-9T4.15,134.15A17.28,17.28,0,0,1,7,128.7q1.4-1.56,4.2-5.3A38.86,38.86,0,0,0,23.32,115ZM191.59,95a70.84,70.84,0,0,0,7.95.16,45.19,45.19,0,0,1,7.79.47,13.69,13.69,0,0,1,7.32,2.8,70.62,70.62,0,0,0,7.17,5.3,60.3,60.3,0,0,0,5.61,6.85q2.17,2.19,5.29,9.67a85.86,85.86,0,0,1,5,18.69A87.62,87.62,0,0,1,239,159.24c-.42,6-1.05,10.33-1.87,12.93s-2,6.39-3.43,11.37l6.54,5.61,9.66,18.08-.93,2.49,3.42,3.74a1.76,1.76,0,0,1-1.24.62c-.42,0-1.4-.1-3-.31a43.34,43.34,0,0,0-5.46-.31,27.93,27.93,0,0,1-7.47-1.25q-4.38-1.25-13.09-3.43a58.46,58.46,0,0,1-6.55,9.51,53.81,53.81,0,0,0-4.51,5.45,21,21,0,0,1-3.59,4,3.59,3.59,0,0,0-1.56,2.81q-7.47,7.47-11.53,10.9a73.11,73.11,0,0,1-10.9,7.33,70.8,70.8,0,0,1-13.25,5.92c-4.26,1.35-7.37,1.6-9.35.78a17.2,17.2,0,0,0-5.92-1.4,10.59,10.59,0,0,1-5.45-1.87q-2.49-1.72-7.79-4.84c-1.46-1.45-2.55-2.6-3.27-3.42a18,18,0,0,1-2.49-4.68,34.21,34.21,0,0,1-2-9.19c-.42-3.84-.83-6.9-1.25-9.19s-1-5.61-1.87-10a4.53,4.53,0,0,1-1.71-.32c-.52-.2-2.65.78-6.39,3a31.43,31.43,0,0,1-10,4,26.28,26.28,0,0,1-8.57.15c-2.8-.41-5-.72-6.7-.93a57.83,57.83,0,0,0-5.92-9.35c-1.46-1.66-2-3.12-1.71-4.36s.67-2.91,1.09-5l.93,1.56a48.4,48.4,0,0,1,5,2.8,7.72,7.72,0,0,0,5.14.94,11.26,11.26,0,0,0,6.23-2.81q3-2.49,8.57-7.17,8.42-10,12.31-13.71a30.46,30.46,0,0,0,4.67-5.14,30.54,30.54,0,0,0,1.72-3.89l-22.44-9a731.06,731.06,0,0,1-57,64.19q-10,8.73-14.34,12.31a40.31,40.31,0,0,1-8,5.3,14.21,14.21,0,0,1-5.45,1.71H23l-1.24-3.42-4.37-3.74a4.21,4.21,0,0,0-1.24-2.65,9,9,0,0,1-1.87-2.34,19.55,19.55,0,0,0-2-2.8,30.3,30.3,0,0,1-2.65-3.74,12.42,12.42,0,0,0,2.81-8.11c1-1,1.81-1.76,2.34-2.18a3.14,3.14,0,0,1,2-.62H20.2c1.87-2.07,3.48-3.79,4.83-5.14s5.4-6.13,12.15-14.34A283.79,283.79,0,0,0,57.9,167q10.6-16.83,11.38-19c.51-1.45,1.09-3,1.71-4.68a34.31,34.31,0,0,0-5.14-1.09,7.74,7.74,0,0,1-3.58-1.4C61,140,58.94,138.78,56,137.11a43.69,43.69,0,0,0-6.39-8.41q-3.9-4-3.9-5.3,5.61,1.88,8.1,3t7-.93q4.5-2,11.52-8.73t12-9.35a145.32,145.32,0,0,0,12.78-7.94l1.56-3.74q5.91,0,8.72-.16a11.1,11.1,0,0,1,5,.78l7.17,2.8a25.55,25.55,0,0,0,.15,3c.1.93-.62,3.16-2.18,6.7a41.79,41.79,0,0,1-5.45,9.19,40.9,40.9,0,0,0-5,7.79q-1.87,3.9-8.26,10.44T86,150.82q-6.54,8.12-22.75,34.59l.63.63q40.5-43.32,56.24-55t26.65-18.7a164.31,164.31,0,0,1,18.54-10.6c5.09-2.38,9.14-3.74,12.15-4A133.93,133.93,0,0,0,191.59,95ZM87.51,67.93a7.48,7.48,0,0,0,2.49.78,18,18,0,0,1,3.43.94,37.29,37.29,0,0,0,5.3,1.4,26.65,26.65,0,0,1,8.1,3.74l1.25,2.49L105.27,81a9,9,0,0,1-1.71-.15q-.78-.16-13.87,9.66T68,104.24q-8.56,3.9-14.18,4.05a49.71,49.71,0,0,1-9.34-.47,21,21,0,0,1-6.86-2.34q-3.12-1.71-9.35-5.45h1.87a32.53,32.53,0,0,0,5.45-1.25q4.52-1.23,13.4-6.85T68.19,80.71Q78.47,75.1,80,74.48a12.77,12.77,0,0,0,3.12-1.87ZM68.81,3.12,71,4.05,71.3,5.3l8.42,8.1a19.15,19.15,0,0,0,.47,4.67q.47,1.88-3.12,5.3a72.14,72.14,0,0,0-6.23,6.7q-2.66,3.27-8.26,10.75h3.74q1.56,0,11.53-4.2t12.62-6.7q2.64-2.49,3.12-2.34a.68.68,0,0,0,.77-.16l1.25-.93c2.49-.42,5.5-.83,9-1.25s5.66-.15,6.39.78a6.44,6.44,0,0,0,2.49,2c.93.41,2.23,1,3.89,1.87L119,34c-1.66,1.24-3.22,2.44-4.67,3.58s-5.2,2.91-11.22,5.3a150.8,150.8,0,0,0-15.43,7,45.61,45.61,0,0,0-8.88,5.76,18.35,18.35,0,0,1-6.23,3.74,32.53,32.53,0,0,1-7.48,1.87c-2.49.32-4.2.16-5.14-.46s-2.34-1.45-4.21-2.5l-1.55-3.42-3.74-3.12q-2.19-4-3.43-6.39a30.57,30.57,0,0,1-2.34-7.48,12.57,12.57,0,0,1,1.09-9,20.69,20.69,0,0,0,2.49-5.77,4.54,4.54,0,0,1,1.72-3,3.92,3.92,0,0,0,1.56-1.87,4.73,4.73,0,0,1,.78-1.71l1.24-.63L66.32,0Zm89.12,115.3q-5.61,4.36-8.56,6.38a75.35,75.35,0,0,0-6.55,5.14q-3.58,3.12-12,10.6l-12.77,14.33a97.44,97.44,0,0,0,20.88,1.56,195.23,195.23,0,0,1,19.32-37.7Zm.63,63.25a104.77,104.77,0,0,1-12.16,14.65l-4.05,2.8a69.5,69.5,0,0,0,9,22.75l5.3,5a50.64,50.64,0,0,0,5.3-.78q2.17-.47,8.25-3.9a95,95,0,0,0,9.66-6.07,88.67,88.67,0,0,0,9.2-8.26l7.47-9.66q-18.69-8.72-37.7-16.21ZM153,136.18a19.65,19.65,0,0,0-2,2.33,26.93,26.93,0,0,0-2.18,4.52q-1.4,3.43-5.14,12.47l1.56.62q3.42-8.72,5.3-11.53c1.24-1.87,1.87-3.32,1.87-4.36A17.21,17.21,0,0,1,153,136.18Zm39.57-31.79q-4.67.63-7.16.78a16.21,16.21,0,0,0-5.77,1.72q-3.27,1.56-10.44,4.67a15.19,15.19,0,0,0,2.5-.16,8.47,8.47,0,0,1,3,.32c1.34.31,3.58.67,6.7,1.09a23.43,23.43,0,0,0,4.05,5q1.54,1.24.78,4.52a34,34,0,0,1-3,7.48c-1.46,2.8-2.19,4.78-2.19,5.92a4.81,4.81,0,0,1-.93,3,23.08,23.08,0,0,0-2.34,5.14q-1.4,3.9-5.45,15.43Q191,166.1,210,172.33a32.58,32.58,0,0,1,2.34-4.06q1.09-1.54,2.5-7.79a109.19,109.19,0,0,0,2-12,62.22,62.22,0,0,0-.16-13.09A82.71,82.71,0,0,0,214,121.53q-1.87-6.54-3.74-8.72c-1.25-1.45-2.92-3.53-5-6.24A30.33,30.33,0,0,0,192.52,104.39Z"/></svg>