<svg xmlns="http://www.w3.org/2000/svg" viewBox="0 0 64 64"><path d="M5.83,28.75v1.32a3.65,3.65,0,0,0,.23,1.13c.16.44.39,1.21.7,2.3l.55-.23a21.65,21.65,0,0,0,.58,2.45,4.37,4.37,0,0,1,.12,2,3.29,3.29,0,0,1-.47,1.52,4.84,4.84,0,0,0-.62,1.16L5,41l-1.4-1a3.33,3.33,0,0,1-.39-.71,2.75,2.75,0,0,0-.66-.78,6.14,6.14,0,0,1-1.21-2.25A4,4,0,0,1,1,33.54a4.47,4.47,0,0,1,.7-1.37c.23-.25.58-.7,1.05-1.32A9.89,9.89,0,0,0,5.83,28.75Zm42.07-5a17.6,17.6,0,0,0,2,0,10.36,10.36,0,0,1,1.95.12,3.35,3.35,0,0,1,1.83.7,19.11,19.11,0,0,0,1.79,1.32,15.33,15.33,0,0,0,1.41,1.72,8.34,8.34,0,0,1,1.32,2.41,21.47,21.47,0,0,1,1.25,4.68,22.12,22.12,0,0,1,.31,5.06A15.4,15.4,0,0,1,59.27,43c-.21.65-.49,1.6-.86,2.85l1.64,1.4,2.42,4.52-.24.62.86.93a.45.45,0,0,1-.31.16c-.11,0-.35,0-.74-.08a10.88,10.88,0,0,0-1.37-.08,6.9,6.9,0,0,1-1.87-.31c-.72-.2-1.81-.49-3.27-.85a14.61,14.61,0,0,1-1.63,2.37,11.89,11.89,0,0,0-1.13,1.37,5.64,5.64,0,0,1-.9,1,.89.89,0,0,0-.39.7q-1.87,1.88-2.88,2.73a18.84,18.84,0,0,1-2.73,1.83,17.52,17.52,0,0,1-3.31,1.48,3.69,3.69,0,0,1-2.34.19,4.38,4.38,0,0,0-1.48-.35,2.62,2.62,0,0,1-1.36-.47c-.42-.28-1.06-.69-2-1.2-.36-.37-.63-.65-.82-.86A4.89,4.89,0,0,1,34,59.83a9.1,9.1,0,0,1-.51-2.3c-.1-1-.2-1.72-.31-2.3s-.26-1.4-.46-2.49a1,1,0,0,1-.43-.08c-.13,0-.66.2-1.6.74a7.79,7.79,0,0,1-2.49,1,6.7,6.7,0,0,1-2.14,0l-1.68-.24a14.87,14.87,0,0,0-1.48-2.34,1.26,1.26,0,0,1-.43-1.09c.08-.31.17-.72.27-1.24l.24.39a11.2,11.2,0,0,1,1.24.7,2,2,0,0,0,1.29.23,2.78,2.78,0,0,0,1.56-.7l2.14-1.79c1.4-1.66,2.43-2.81,3.08-3.43a7.7,7.7,0,0,0,1.17-1.28,7.12,7.12,0,0,0,.42-1l-5.6-2.26A183.53,183.53,0,0,1,14,56.48c-1.66,1.46-2.86,2.48-3.58,3.08a10,10,0,0,1-2,1.32,3.49,3.49,0,0,1-1.36.43H5.75l-.31-.86-1.09-.93A1.08,1.08,0,0,0,4,58.86a2.33,2.33,0,0,1-.47-.59,5.49,5.49,0,0,0-.51-.7,8.43,8.43,0,0,1-.66-.93,3.09,3.09,0,0,0,.7-2,6.8,6.8,0,0,1,.59-.54.73.73,0,0,1,.5-.16h.86c.47-.52.87-.95,1.21-1.29s1.35-1.53,3-3.58a73.45,73.45,0,0,0,5.18-7.28C16.24,39,17.19,37.37,17.32,37s.27-.75.43-1.16a8.35,8.35,0,0,0-1.29-.28,1.86,1.86,0,0,1-.89-.35c-.31-.2-.83-.52-1.56-.93a11,11,0,0,0-1.6-2.11c-.65-.67-1-1.11-1-1.32.93.31,1.61.56,2,.74a2.26,2.26,0,0,0,1.76-.23,11.8,11.8,0,0,0,2.88-2.18,14.55,14.55,0,0,1,3-2.34,34.87,34.87,0,0,0,3.19-2l.39-.93c1,0,1.72,0,2.18,0a2.77,2.77,0,0,1,1.25.19l1.79.7a5.8,5.8,0,0,0,0,.74,4.74,4.74,0,0,1-.55,1.68A10,10,0,0,1,28,29.49a10.32,10.32,0,0,0-1.24,1.94A11.74,11.74,0,0,1,24.72,34q-1.59,1.65-3.23,3.67a98.93,98.93,0,0,0-5.69,8.64l.16.16Q26.09,35.68,30,32.76t6.66-4.68a42.07,42.07,0,0,1,4.63-2.64,10.37,10.37,0,0,1,3-1A32.82,32.82,0,0,0,47.9,23.76ZM21.88,17a1.8,1.8,0,0,0,.62.2,4,4,0,0,1,.86.23,8.84,8.84,0,0,0,1.32.35,6.79,6.79,0,0,1,2,.94l.31.62-.7.94a2.74,2.74,0,0,1-.43,0,24,24,0,0,0-3.47,2.41A31,31,0,0,1,17,26.06a9.55,9.55,0,0,1-3.55,1A12.46,12.46,0,0,1,11.13,27a5.39,5.39,0,0,1-1.72-.59c-.52-.28-1.3-.74-2.33-1.36h.46a9.33,9.33,0,0,0,1.37-.31A14.45,14.45,0,0,0,12.26,23c1.48-.93,3.07-1.87,4.79-2.8s2.7-1.46,3-1.56a3,3,0,0,0,.78-.47ZM17.2.78l.55.23.08.31,2.1,2a4.78,4.78,0,0,0,.12,1.17q.11.47-.78,1.32a18.08,18.08,0,0,0-1.56,1.68c-.44.54-1.13,1.44-2.07,2.69h.94a15.54,15.54,0,0,0,2.88-1.06,12.42,12.42,0,0,0,3.16-1.67c.44-.42.7-.61.78-.59a.17.17,0,0,0,.19,0l.31-.24c.63-.1,1.38-.2,2.26-.31s1.42,0,1.6.2a1.62,1.62,0,0,0,.62.5l1,.47.39,1q-.63.47-1.17.9a14.54,14.54,0,0,1-2.81,1.32,38.34,38.34,0,0,0-3.85,1.75,11.25,11.25,0,0,0-2.22,1.45,4.62,4.62,0,0,1-1.56.93,8.69,8.69,0,0,1-1.87.47A2,2,0,0,1,15,15.19c-.23-.15-.58-.36-1.05-.62l-.39-.86-.93-.78c-.37-.67-.65-1.21-.86-1.59a7.57,7.57,0,0,1-.58-1.87,3.08,3.08,0,0,1,.27-2.26,5.25,5.25,0,0,0,.62-1.44A1.17,1.17,0,0,1,12.49,5a1,1,0,0,0,.39-.46,1.14,1.14,0,0,1,.19-.43L13.39,4l3.19-4ZM39.48,29.6c-.93.73-1.65,1.26-2.14,1.6a18.14,18.14,0,0,0-1.63,1.29c-.6.52-1.6,1.4-3,2.65l-3.2,3.58a24.68,24.68,0,0,0,5.22.39,49.42,49.42,0,0,1,4.83-9.43Zm.16,15.82a26.85,26.85,0,0,1-3,3.66l-1,.7a17.3,17.3,0,0,0,2.26,5.69l1.32,1.24a11.75,11.75,0,0,0,1.33-.19,9.71,9.71,0,0,0,2.06-1A24.93,24.93,0,0,0,45,54,21.8,21.8,0,0,0,47.27,52l1.87-2.41c-3.11-1.46-6.26-2.81-9.42-4ZM38.24,34a4.94,4.94,0,0,0-.51.59,6.35,6.35,0,0,0-.54,1.13L35.9,38.87l.39.16a18.4,18.4,0,0,1,1.32-2.88,2.18,2.18,0,0,0,.47-1.09A4.18,4.18,0,0,1,38.24,34Zm9.89-7.94c-.78.1-1.38.17-1.79.19a4,4,0,0,0-1.44.43q-.82.39-2.61,1.17a3.42,3.42,0,0,0,.62,0,2.24,2.24,0,0,1,.74.08q.51.12,1.68.27a5.91,5.91,0,0,0,1,1.25c.26.21.32.58.19,1.13a8.17,8.17,0,0,1-.74,1.87,4,4,0,0,0-.54,1.48,1.19,1.19,0,0,1-.24.74A5.75,5.75,0,0,0,44.43,36c-.23.65-.69,1.94-1.36,3.86C46.18,41,49.33,42,52.49,43.08a9.1,9.1,0,0,1,.59-1,6.87,6.87,0,0,0,.62-2,29.43,29.43,0,0,0,.51-3,15.7,15.7,0,0,0,0-3.27,20.71,20.71,0,0,0-.66-3.47,6.57,6.57,0,0,0-.94-2.18c-.31-.36-.73-.88-1.24-1.56A7.69,7.69,0,0,0,48.13,26.1Z"/></svg>